<svg version="1.1" id="Layer_1" xmlns="http://www.w3.org/2000/svg" xmlns:xlink="http://www.w3.org/1999/xlink" x="0px" y="0px"
	 width="100%" viewBox="0 0 1687 998" enable-background="new 0 0 1687 998" xml:space="preserve">
<path fill="#FFFFFF" opacity="1.000000" stroke="none" 
	d="
M1263.000000,999.000000 
	C842.000000,999.000000 421.500000,999.000000 1.000000,999.000000 
	C1.000000,666.333313 1.000000,333.666656 1.000000,1.000000 
	C563.333313,1.000000 1125.666626,1.000000 1688.000000,1.000000 
	C1688.000000,333.666656 1688.000000,666.333313 1688.000000,999.000000 
	C1546.500000,999.000000 1405.000000,999.000000 1263.000000,999.000000 
M1099.500000,957.701233 
	C1123.596802,957.701233 1147.693604,957.701233 1172.907959,957.701233 
	C995.032471,649.385315 817.688293,341.990234 639.916992,33.854900 
	C462.092834,342.082153 284.787170,649.410645 107.214470,957.201965 
	C320.273590,957.201965 532.521790,957.201965 745.232422,957.201965 
	C744.116455,955.174927 743.341431,953.712708 742.517639,952.278564 
	C709.099182,894.099915 675.642761,835.942993 642.338196,777.699219 
	C640.367615,774.253052 638.360046,772.902405 634.294800,772.911133 
	C567.633545,773.054565 500.971893,773.012878 434.310303,773.012817 
	C432.419830,773.012817 430.529358,773.012817 427.631531,773.012817 
	C498.644257,649.401245 569.060303,526.828369 639.844971,403.613800 
	C641.194824,405.848053 642.058350,407.217529 642.864441,408.620056 
	C688.822510,488.588959 734.531372,568.702454 780.826416,648.475830 
	C806.320007,692.405212 831.341064,736.596436 857.565796,780.129822 
	C891.654480,836.717224 922.780212,895.091003 955.047607,952.770752 
	C957.081299,956.406067 959.227173,957.828796 963.510742,957.811768 
	C1008.506653,957.632874 1053.503418,957.701172 1099.500000,957.701233 
M1058.697510,390.831787 
	C1074.975342,418.919861 1091.256592,447.006042 1107.530640,475.096344 
	C1199.919067,634.565918 1292.316528,794.030273 1384.615723,953.551575 
	C1386.458008,956.735718 1388.424805,957.789124 1392.038696,957.783142 
	C1459.033325,957.671387 1526.028198,957.701294 1593.022949,957.701294 
	C1594.778931,957.701294 1596.534912,957.701294 1599.126953,957.701294 
	C1597.885010,955.376526 1597.167114,953.941223 1596.369263,952.551941 
	C1530.540405,837.920166 1464.708252,723.290283 1398.869995,608.663879 
	C1333.447510,494.761230 1268.023193,380.859680 1202.591187,266.962555 
	C1158.805786,190.745926 1114.979858,114.552620 1071.296509,38.277527 
	C1069.356079,34.889271 1067.242188,33.892944 1063.472046,33.899445 
	C994.977539,34.017582 926.482788,33.983833 857.988098,33.995640 
	C856.283142,33.995934 854.578125,34.146362 852.352112,34.251339 
	C853.163147,35.882584 853.547852,36.776684 854.032104,37.613113 
	C881.886780,85.726250 909.744324,133.837753 937.613220,181.942673 
	C977.835510,251.370605 1018.066711,320.793396 1058.697510,390.831787 
z"/>
<path fill="#010101" opacity="1.000000" stroke="none" 
	d="
M1099.000000,957.701172 
	C1053.503418,957.701172 1008.506653,957.632874 963.510742,957.811768 
	C959.227173,957.828796 957.081299,956.406067 955.047607,952.770752 
	C922.780212,895.091003 891.654480,836.717224 857.565796,780.129822 
	C831.341064,736.596436 806.320007,692.405212 780.826416,648.475830 
	C734.531372,568.702454 688.822510,488.588959 642.864441,408.620056 
	C642.058350,407.217529 641.194824,405.848053 639.844971,403.613800 
	C569.060303,526.828369 498.644257,649.401245 427.631531,773.012817 
	C430.529358,773.012817 432.419830,773.012817 434.310303,773.012817 
	C500.971893,773.012878 567.633545,773.054565 634.294800,772.911133 
	C638.360046,772.902405 640.367615,774.253052 642.338196,777.699219 
	C675.642761,835.942993 709.099182,894.099915 742.517639,952.278564 
	C743.341431,953.712708 744.116455,955.174927 745.232422,957.201965 
	C532.521790,957.201965 320.273590,957.201965 107.214470,957.201965 
	C284.787170,649.410645 462.092834,342.082153 639.916992,33.854900 
	C817.688293,341.990234 995.032471,649.385315 1172.907959,957.701233 
	C1147.693604,957.701233 1123.596802,957.701233 1099.000000,957.701172 
z"/>
<path fill="#010101" opacity="1.000000" stroke="none" 
	d="
M1058.495850,390.525085 
	C1018.066711,320.793396 977.835510,251.370605 937.613220,181.942673 
	C909.744324,133.837753 881.886780,85.726250 854.032104,37.613113 
	C853.547852,36.776684 853.163147,35.882584 852.352112,34.251339 
	C854.578125,34.146362 856.283142,33.995934 857.988098,33.995640 
	C926.482788,33.983833 994.977539,34.017582 1063.472046,33.899445 
	C1067.242188,33.892944 1069.356079,34.889271 1071.296509,38.277527 
	C1114.979858,114.552620 1158.805786,190.745926 1202.591187,266.962555 
	C1268.023193,380.859680 1333.447510,494.761230 1398.869995,608.663879 
	C1464.708252,723.290283 1530.540405,837.920166 1596.369263,952.551941 
	C1597.167114,953.941223 1597.885010,955.376526 1599.126953,957.701294 
	C1596.534912,957.701294 1594.778931,957.701294 1593.022949,957.701294 
	C1526.028198,957.701294 1459.033325,957.671387 1392.038696,957.783142 
	C1388.424805,957.789124 1386.458008,956.735718 1384.615723,953.551575 
	C1292.316528,794.030273 1199.919067,634.565918 1107.530640,475.096344 
	C1091.256592,447.006042 1074.975342,418.919861 1058.495850,390.525085 
z"/>
</svg>